<?xml version="1.0" encoding="UTF-8" standalone="no"?>
<!-- Created with Inkscape (http://www.inkscape.org/) -->

<svg
   width="1280"
   height="720"
   viewBox="0 0 338.66666 190.5"
   version="1.1"
   id="svg1"
   xml:space="preserve"
   inkscape:version="1.3 (0e150ed6c4, 2023-07-21)"
   sodipodi:docname="background.svg"
   inkscape:export-filename="background.svg"
   inkscape:export-xdpi="96"
   inkscape:export-ydpi="96"
   xmlns:inkscape="http://www.inkscape.org/namespaces/inkscape"
   xmlns:sodipodi="http://sodipodi.sourceforge.net/DTD/sodipodi-0.dtd"
   xmlns="http://www.w3.org/2000/svg"
   xmlns:svg="http://www.w3.org/2000/svg"><sodipodi:namedview
     id="namedview1"
     pagecolor="#ffffff"
     bordercolor="#000000"
     borderopacity="0.25"
     inkscape:showpageshadow="2"
     inkscape:pageopacity="0.0"
     inkscape:pagecheckerboard="0"
     inkscape:deskcolor="#d1d1d1"
     inkscape:document-units="px"
     inkscape:zoom="0.4894542"
     inkscape:cx="518.94539"
     inkscape:cy="195.1153"
     inkscape:window-width="1920"
     inkscape:window-height="991"
     inkscape:window-x="-9"
     inkscape:window-y="-9"
     inkscape:window-maximized="1"
     inkscape:current-layer="layer1-1" /><defs
     id="defs1"><inkscape:path-effect
       effect="fillet_chamfer"
       id="path-effect2002"
       is_visible="true"
       lpeversion="1"
       nodesatellites_param="F,0,0,1,0,3.742924,0,1 @ F,0,0,1,0,3.742924,0,1 @ F,0,0,1,0,1.5125693,0,1 @ F,0,0,1,0,3.742924,0,1"
       radius="0"
       unit="px"
       method="auto"
       mode="F"
       chamfer_steps="1"
       flexible="false"
       use_knot_distance="true"
       apply_no_radius="true"
       apply_with_radius="true"
       only_selected="false"
       hide_knots="false" /></defs><g
     inkscape:label="Camada 1"
     inkscape:groupmode="layer"
     id="layer1"><g
       inkscape:label="Camada 1"
       id="layer1-1"
       transform="matrix(16.252503,0,0,16.252503,123.98168,-7.9703792)"><path
         id="path2"
         style="opacity:0.627866;fill:#ffffff;stroke:none;stroke-width:0.53997;stroke-linecap:round;stroke-linejoin:round;stroke-dasharray:none;stroke-opacity:1;paint-order:stroke markers fill"
         d="M 1.2880726,4.4663351 C 1.1062534,5.4988912 0.64673797,6.2316688 1.6515907,6.8915701 1.6989692,6.5510308 1.9324788,6.2297338 2.2451614,6.081638 2.0834568,5.5287703 1.7858649,5.019203 1.2880726,4.4663351 Z m 3.0047363,0 C 3.7950167,5.0192028 3.4974224,5.5287703 3.3357201,6.081638 3.6484025,6.2297344 3.881921,6.5510308 3.929291,6.8915701 4.9341432,6.2316688 4.4746303,5.4988912 4.2928089,4.4663351 Z M 2.7904418,6.1238454 A 1.0081803,1.0558181 0 0 0 1.7831579,7.1611678 1.1452684,0.72823678 0 0 0 1.6455038,7.5071949 1.1452684,0.72823678 0 0 0 2.7904375,8.2357549 1.1452684,0.72823678 0 0 0 3.935369,7.5071949 1.1452684,0.72823678 0 0 0 3.7981082,7.1615483 1.0081803,1.0558181 0 0 0 2.7904464,6.1238454 Z m 0,1.4738501 c 0.1755883,0 0.3178884,0.088067 0.3178884,0.1965991 0,0.1085313 -0.1422893,0.2654133 -0.3178884,0.2654133 -0.1755881,0 -0.3178907,-0.1568946 -0.3178907,-0.2654133 0,-0.1085312 0.1422897,-0.1965991 0.3178907,-0.1965991 z" /></g></g></svg>
